<?xml version="1.0" encoding="UTF-8" standalone="no"?><svg   xmlns:svg="http://www.w3.org/2000/svg"   xmlns="http://www.w3.org/2000/svg"   version="1.1"   width="1143"   height="1000"   viewBox="0 0 1143 1000">  <path     d="M563 12C479 12 421 37 362 97C306 153 279 217 279 294C279 351 300 418 332 462C339 471 339 472 321 481C287 498 240 532 206 565C108 658 49 783 43 914L41 963L56 978C72 995 92 998 113 987C129 979 134 966 139 913C144 857 153 823 173 777C213 684 287 606 379 560C413 544 416 543 429 548C488 572 502 575 553 577C609 579 649 571 690 550C702 545 714 540 717 540C726 540 790 572 816 590C892 642 951 720 981 809C993 845 1004 901 1004 933C1004 972 1021 993 1052 993C1073 993 1086 985 1095 967C1101 956 1102 946 1099 916C1085 728 984 569 823 482L792 465L804 446C833 400 847 351 847 294C847 215 820 152 763 95C702 35 647 12 563 12zM558 108C587 107 616 112 641 124C719 160 765 246 750 326C736 402 676 464 602 480C475 507 357 396 377 267C385 212 427 153 474 129C499 116 529 109 558 108z"     id="encontrar-amigos" /></svg>