<?xml version="1.0" encoding="UTF-8" standalone="no"?><svg   xmlns:svg="http://www.w3.org/2000/svg"   xmlns="http://www.w3.org/2000/svg"   version="1.1"   width="1652"   height="1000"   viewBox="0 0 1652 1000">  <path     d="M1098 105C1202 105 1286 190 1286 293C1286 396 1202 480 1098 480C995 480 911 396 911 293C911 190 995 105 1098 105M1329 462C1365 413 1385 354 1385 293C1385 135 1257 6 1098 6C940 6 811 135 811 293C811 356 832 417 872 468C690 557 574 741 574 944C574 972 596 994 624 994C651 994 673 972 673 944C673 765 786 604 956 541C1047 594 1161 591 1249 537C1422 598 1538 761 1538 944C1538 972 1560 994 1587 994C1615 994 1637 972 1637 944C1637 736 1517 550 1329 462M279 563C264 563 250 558 239 547L16 324C-5 302 -5 267 16 245C38 224 73 224 95 245L276 426L627 25C647 2 683 -1 706 20C729 40 731 75 711 98L321 544C311 556 296 563 281 563L279 563z"     id="seguindo" /></svg>